# xmcd
#
# Track frame offsets:
#	150
#	25679
#	39357
#	60479
#	77267
#	102017
#	120439
#	137458
#	155322
#	166282
#	188375
#
# Disc length: 2634 seconds
#
# Revision: 1
# Processed by: cddbd v1.5PL3 Copyright (c) Steve Scherf et al.
# Submitted via: audiograbber 1.83.01
#
DISCID=6a0a480b
DTITLE=Jimmie Bratcher - Something Better
DYEAR=2003
DGENRE=Christian Blues
TTITLE0=Something Better
TTITLE1=Rain
TTITLE2=Prince Of Peace
TTITLE3=Change Me
TTITLE4=You Are My Peace
TTITLE5=Your Grace Is Enough
TTITLE6=Scarred King
TTITLE7=Get Out The Boat
TTITLE8=I've Been Born Again
TTITLE9=Live Today
TTITLE10=The Reprise
EXTD=
EXTT0=
EXTT1=
EXTT2=
EXTT3=
EXTT4=
EXTT5=
EXTT6=
EXTT7=
EXTT8=
EXTT9=
EXTT10=
PLAYORDER=
